<svg width="104" height="56" viewBox="0 0 104 56" fill="none" xmlns="http://www.w3.org/2000/svg">
<path d="M41.6001 42.4157C41.035 42.0003 40.4938 41.5924 39.9688 41.1921C40.4938 41.5962 41.039 42.004 41.6001 42.4157Z" fill="#FFB0C8"/>
<path d="M16.7188 48.9412C17.5257 49.375 18.3439 49.7828 19.1658 50.1647C18.3401 49.7828 17.5219 49.375 16.7188 48.9412Z" fill="#FFB0C8"/>
<path d="M33.4453 34.6667C33.9704 35.3479 34.512 36.0248 35.0767 36.706C34.512 36.0248 33.9671 35.3479 33.4453 34.6667Z" fill="#FFB0C8"/>
<path d="M58.7299 29.3647C58.4377 29.0959 58.1534 28.8202 57.873 28.541C57.1978 27.8709 56.5344 27.1938 55.875 26.5098C56.5305 27.1938 57.1978 27.8709 57.873 28.541C58.1534 28.8202 58.4416 29.0924 58.7299 29.3647Z" fill="#FFB0C8"/>
<path d="M68.1094 4.89417C68.1656 4.87888 68.2219 4.85849 68.2817 4.8228C68.4926 4.70555 68.7106 4.59339 68.9251 4.48633C68.7071 4.59339 68.4926 4.70555 68.2817 4.8228C68.2219 4.85339 68.1656 4.87888 68.1094 4.89417Z" fill="#FFB0C8"/>
<path d="M103.738 23.1995C103.663 22.5859 103.564 21.9685 103.439 21.3511C103.318 20.7337 103.174 20.1125 103.003 19.4951C102.75 18.5672 102.446 17.6392 102.087 16.7226C101.802 15.9953 101.48 15.2757 101.124 14.5636C100.59 13.4955 99.9763 12.4463 99.2755 11.4312C99.0406 11.0941 98.7981 10.757 98.5481 10.4275C96.0212 7.12082 92.532 4.22325 87.9176 2.1817C87.5387 2.01504 87.1561 1.85975 86.7735 1.70824C86.7394 1.69688 86.7053 1.68172 86.6712 1.66657C86.3075 1.52643 85.94 1.39765 85.5687 1.27266C85.5195 1.2575 85.4664 1.23857 85.4172 1.21963C85.0573 1.10221 84.6936 0.99237 84.3337 0.890102C84.2769 0.874952 84.22 0.856012 84.1594 0.840861C83.7995 0.742381 83.4358 0.651478 83.0759 0.571936C83.0191 0.560573 82.9622 0.545423 82.9054 0.53406C82.5379 0.454519 82.1742 0.382554 81.8068 0.321952C81.7575 0.314376 81.7083 0.306799 81.6628 0.299224C81.2839 0.238621 80.9089 0.181806 80.5338 0.140142C80.5035 0.140142 80.477 0.136356 80.4467 0.132568C80.0565 0.0909036 79.6663 0.0568137 79.276 0.0340877C79.2723 0.0340877 79.2647 0.0340877 79.2609 0.0340877C78.8745 0.0113616 78.488 0.00378767 78.1054 0C78.0637 0 78.0221 0 77.9804 0C77.719 0 77.4538 0.0075728 77.1924 0.0151481C77.1507 0.0151481 77.1052 0.0189374 77.0636 0.0227251C76.8363 0.0340881 76.6127 0.0454514 76.3892 0.0643897C76.3324 0.0681774 76.2718 0.0757531 76.2149 0.0795408C75.9838 0.0984791 75.749 0.124991 75.5179 0.151505C75.4876 0.151505 75.4573 0.159079 75.4307 0.162867C75.1655 0.196956 74.8966 0.238623 74.6314 0.280287C74.62 0.280287 74.6086 0.284073 74.5973 0.287861C72.9644 0.677991 71.2104 1.3219 69.3313 2.05292C69.3199 2.05671 69.3085 2.06428 69.3009 2.06807C68.9903 2.23094 68.6796 2.40517 68.3766 2.58698C68.3462 2.60592 68.3159 2.62486 68.2856 2.64379C67.9826 2.82939 67.6833 3.02256 67.3916 3.2271C67.3385 3.26497 67.2931 3.30285 67.2514 3.34451C67.2362 3.35966 67.2287 3.37481 67.2135 3.38618C67.187 3.41648 67.1642 3.44299 67.1415 3.47329C67.1301 3.49223 67.1188 3.51117 67.1074 3.52632C67.0923 3.55662 67.0733 3.58314 67.0619 3.61344C67.0544 3.63238 67.0468 3.6551 67.0392 3.67404C67.0279 3.70434 67.0203 3.73085 67.0127 3.76116C67.0089 3.78009 67.0051 3.80282 67.0013 3.82176C66.9976 3.85206 66.9938 3.88236 66.9938 3.91266C66.9938 3.9316 66.9938 3.95433 66.9938 3.97327C66.9938 4.00357 66.9938 4.03766 67.0013 4.06796C67.0013 4.0869 67.0013 4.10584 67.0089 4.12099C67.0165 4.15886 67.0241 4.19674 67.0354 4.23462C67.0354 4.24598 67.0392 4.25734 67.043 4.26492C67.0582 4.31037 67.0771 4.35961 67.0998 4.40127C67.1074 4.41642 67.115 4.42779 67.1226 4.43915C67.1415 4.46945 67.1567 4.49975 67.1794 4.52627C67.1908 4.54142 67.2021 4.55657 67.2135 4.57172C67.2324 4.59445 67.2514 4.62096 67.2741 4.6399C67.2893 4.65505 67.3044 4.66641 67.3196 4.68156C67.3423 4.7005 67.365 4.71944 67.3878 4.73838C67.4029 4.74974 67.4219 4.7611 67.4408 4.77247C67.4673 4.78762 67.4938 4.80277 67.5204 4.81413C67.5393 4.82171 67.5582 4.83307 67.5772 4.84065C67.6075 4.85201 67.6378 4.85958 67.6681 4.87094C67.6871 4.87473 67.706 4.88231 67.7249 4.8861C67.7628 4.89367 67.8007 4.89746 67.8386 4.89746C67.8537 4.89746 67.8689 4.89746 67.8841 4.90125C67.9219 4.90125 67.9636 4.89746 68.0015 4.88988C68.0204 4.88988 68.0394 4.88988 68.0583 4.8861C68.1189 4.87473 68.1796 4.85958 68.244 4.83307C68.4713 4.74595 68.7062 4.66262 68.9373 4.58308C68.9979 4.56036 69.0623 4.54142 69.1229 4.52248C69.3275 4.4543 69.5321 4.38991 69.7404 4.3331C69.7745 4.32173 69.8086 4.31416 69.8427 4.30279C70.0814 4.23462 70.3201 4.17401 70.5587 4.1172C70.6193 4.10205 70.68 4.09068 70.7444 4.07553C70.9452 4.03008 71.1459 3.98842 71.3505 3.94675C71.4036 3.93539 71.4528 3.92403 71.5059 3.91645C71.7521 3.871 71.9984 3.82934 72.2446 3.79525C72.3014 3.78767 72.3545 3.7801 72.4113 3.77252C72.6159 3.74601 72.8205 3.71949 73.0288 3.70055C73.0932 3.69298 73.1538 3.68919 73.2182 3.68162C73.4683 3.65889 73.7221 3.63995 73.9759 3.62859C74.0176 3.62859 74.0593 3.62859 74.101 3.6248C74.3207 3.61723 74.5404 3.60965 74.7602 3.60965C74.798 3.60965 74.8359 3.60965 74.8738 3.60965C74.9079 3.60965 74.942 3.60965 74.9761 3.60965C75.1542 3.60965 75.3322 3.61344 75.5103 3.62101C75.5671 3.62101 75.6239 3.62101 75.677 3.6248C75.9081 3.63617 76.143 3.65131 76.3779 3.67025C76.4309 3.67404 76.4839 3.68162 76.537 3.6854C76.7188 3.70055 76.9007 3.71949 77.0825 3.74222C77.1621 3.75358 77.2378 3.76116 77.3174 3.77252C77.4841 3.79525 77.647 3.81797 77.8137 3.84827C77.8895 3.85964 77.9652 3.871 78.041 3.88615C78.2494 3.92403 78.4577 3.9619 78.6661 4.00736C78.6926 4.01114 78.7191 4.01872 78.7457 4.02251C78.9805 4.07175 79.2116 4.12856 79.4465 4.18916C79.5147 4.2081 79.5829 4.22704 79.6549 4.24598C79.8216 4.29143 79.9921 4.34067 80.1588 4.38991C80.2383 4.41264 80.3179 4.43915 80.3936 4.46188C80.5641 4.51491 80.7308 4.57172 80.9013 4.63232C80.9695 4.65505 81.0339 4.67777 81.1021 4.7005C81.3332 4.78383 81.5643 4.87473 81.7954 4.96942C81.8333 4.98458 81.8674 4.99973 81.9053 5.01488C82.0985 5.09442 82.2917 5.18153 82.4849 5.26865C82.5607 5.30274 82.6326 5.33683 82.7084 5.37471C82.8675 5.45046 83.0267 5.53 83.1858 5.60954C83.2615 5.64742 83.3373 5.68529 83.4131 5.72696C83.5911 5.82165 83.773 5.92013 83.951 6.0224C83.9965 6.04891 84.0458 6.07542 84.0912 6.10194C84.3147 6.23072 84.5345 6.36708 84.7542 6.51101C84.811 6.54888 84.8679 6.58676 84.9247 6.62464C85.0914 6.73448 85.2543 6.84432 85.4172 6.95795C85.4892 7.01098 85.5649 7.06022 85.6369 7.11325C85.7923 7.22309 85.9438 7.34051 86.0953 7.45793C86.1597 7.50717 86.2279 7.56019 86.2923 7.60943C86.5045 7.77988 86.7204 7.95032 86.9288 8.13213C90.3384 11.0562 92.8843 15.2378 93.9413 19.6732C94.0474 20.1163 94.1383 20.5633 94.2141 21.0102C94.2898 21.4572 94.3504 21.9079 94.3921 22.3548C94.4793 23.2525 94.5058 24.154 94.4565 25.0479C94.4262 25.6425 94.3656 26.2372 94.2709 26.8243C94.1307 27.7068 93.9186 28.578 93.6268 29.4264C93.4336 29.9946 93.2063 30.5514 92.9411 31.1006C92.6759 31.6498 92.3766 32.1838 92.0395 32.7065C91.7023 33.2292 91.3272 33.7406 90.9105 34.233C90.6377 34.5587 90.3498 34.8731 90.0505 35.1761C89.6035 35.6306 89.1261 36.0549 88.626 36.4488C88.126 36.8427 87.6031 37.2063 87.0576 37.5283C85.6028 38.3919 83.9965 38.9903 82.2993 39.2327C81.9621 39.282 81.6211 39.316 81.2839 39.3463C81.2158 39.3539 81.1476 39.3577 81.0794 39.3653C80.7498 39.3918 80.424 39.4069 80.0944 39.4183C80.0337 39.4183 79.9731 39.4183 79.9125 39.4183C79.7799 39.4183 79.6435 39.4259 79.5109 39.4259C79.3859 39.4259 79.2647 39.4183 79.1397 39.4183C79.0071 39.4183 78.8745 39.4145 78.7457 39.4107C78.507 39.4032 78.2645 39.388 78.0258 39.3691C77.916 39.3615 77.8023 39.3577 77.6925 39.3463C77.3439 39.316 76.9954 39.2782 76.6468 39.2327C76.6393 39.2327 76.6355 39.2327 76.6279 39.2327C76.2869 39.1873 75.9422 39.1304 75.605 39.0698C75.4913 39.0509 75.3815 39.0244 75.2716 39.0054C75.0367 38.96 74.8018 38.9108 74.567 38.8577C74.4381 38.8274 74.3093 38.7971 74.1805 38.7668C73.9608 38.7138 73.7448 38.657 73.5289 38.6002C73.4001 38.5661 73.2713 38.5282 73.1387 38.4941C72.919 38.4297 72.6992 38.3653 72.4795 38.2934C72.3583 38.2555 72.2408 38.2176 72.1234 38.1797C71.8695 38.0964 71.6157 38.0055 71.3619 37.9146C71.2823 37.8843 71.2028 37.8578 71.1232 37.8313C70.7936 37.7063 70.464 37.5775 70.1382 37.4449C70.0586 37.4108 69.9791 37.3767 69.8995 37.3427C69.6533 37.2366 69.407 37.1305 69.1646 37.0207C69.0509 36.9677 68.9373 36.9147 68.8198 36.8578C68.6114 36.7594 68.4069 36.6609 68.2023 36.5586C68.0811 36.498 67.9636 36.4374 67.8424 36.3768C67.6416 36.2745 67.4446 36.1685 67.2476 36.0624C67.1339 35.998 67.0165 35.9374 66.9028 35.873C66.6945 35.7556 66.4861 35.6344 66.2815 35.5132C66.183 35.4564 66.0845 35.3996 65.9898 35.3428C65.6905 35.161 65.395 34.9792 65.1033 34.7898C62.7203 33.252 60.5268 31.4301 58.5719 29.3772C58.2916 29.0855 58.0188 28.7863 57.7498 28.4833C57.102 27.7561 56.4655 27.0213 55.8329 26.2789C55.204 25.5365 54.5827 24.7903 53.9689 24.0328C52.7452 22.5177 51.5632 20.9761 50.4267 19.3967C49.2295 17.7339 48.0892 16.0635 46.9186 14.4462C46.4488 13.7985 45.9752 13.1584 45.4903 12.5296C44.7629 11.5865 44.009 10.6661 43.2134 9.78356C42.9482 9.48812 42.6792 9.20026 42.4027 8.91239C41.8495 8.34045 41.2775 7.78745 40.6751 7.25339C40.3758 6.98825 40.0652 6.7269 39.7507 6.46934C39.3075 6.10951 38.8377 5.76484 38.3603 5.42773C38.1596 5.28759 37.9664 5.14366 37.7618 5.0073C37.7618 5.0073 37.7542 5.00351 37.7504 4.99973C37.4776 4.82171 37.2049 4.64369 36.9283 4.47703C36.8336 4.42021 36.7389 4.36719 36.648 4.31037C36.4585 4.19674 36.2691 4.08311 36.0797 3.97706C35.966 3.91267 35.8486 3.85206 35.7349 3.78767C35.5607 3.69298 35.3864 3.59829 35.2121 3.5036C35.0871 3.43921 34.9621 3.3786 34.8408 3.31421C34.6704 3.2271 34.4999 3.14377 34.3294 3.06044C34.2006 2.99983 34.0718 2.93923 33.943 2.87863C33.7725 2.79909 33.602 2.72334 33.4315 2.64758C33.2989 2.59077 33.1663 2.53395 33.0337 2.47714C32.8633 2.40517 32.689 2.33699 32.5185 2.26881C32.3821 2.21579 32.2495 2.16276 32.1131 2.11352C31.9389 2.04913 31.7608 1.98474 31.5865 1.92414C31.4501 1.87868 31.3176 1.82945 31.1812 1.78399C30.9993 1.72339 30.8213 1.66657 30.6394 1.61355C30.5068 1.57188 30.3742 1.53022 30.2378 1.49234C30.0484 1.43931 29.859 1.38629 29.6696 1.33705C29.5408 1.30296 29.4157 1.26887 29.2869 1.23478C29.0786 1.18175 28.8664 1.1363 28.6542 1.09085C28.5444 1.06812 28.4345 1.04161 28.3246 1.01888C28.0178 0.954492 27.7071 0.897677 27.3965 0.844649C27.3851 0.844649 27.3699 0.840863 27.3586 0.837075C27.0366 0.784048 26.7107 0.738595 26.3849 0.69693C26.2789 0.685567 26.169 0.674206 26.0629 0.662843C25.8432 0.640117 25.6234 0.617388 25.4037 0.59845C25.2749 0.587087 25.1461 0.5833 25.0173 0.575725C24.8165 0.564362 24.6195 0.549211 24.4187 0.545423C24.2823 0.541635 24.1421 0.537849 24.0058 0.537849C23.7974 0.537849 23.5928 0.530273 23.3845 0.53406C23.3087 0.53406 23.2329 0.53406 23.1571 0.53406C22.8503 0.541636 22.5434 0.549213 22.2365 0.568151C21.8918 0.590877 21.547 0.621177 21.2023 0.659054C20.5128 0.738595 19.8233 0.852226 19.1376 0.999945C18.4518 1.14766 17.7661 1.32947 17.0918 1.54158C15.7355 1.9658 14.4057 2.51501 13.1214 3.17028C12.1592 3.66268 11.2234 4.21568 10.3217 4.82171C9.12079 5.62848 7.98424 6.53373 6.93483 7.51095C3.85858 10.3896 1.809 14.0598 0.778535 18.0217C0.619418 18.6316 0.486821 19.249 0.376955 19.8701C0.267088 20.4913 0.179953 21.1163 0.119337 21.7488C0.0587216 22.3776 0.0208367 23.0101 0.00568273 23.6464C-0.00189424 23.9646 -0.00189424 24.2828 0.00568273 24.6009C0.0170482 25.2373 0.0511446 25.8736 0.107972 26.5061C0.282242 28.4113 0.672457 30.3052 1.27862 32.1384C1.47941 32.7482 1.70671 33.3542 1.95675 33.9489C2.2068 34.5436 2.47957 35.1307 2.77886 35.7102C3.851 37.7896 5.19213 39.6797 6.73025 41.3955C7.34778 42.081 7.99182 42.7401 8.66996 43.3688C11.034 45.5733 13.7314 47.4368 16.5765 48.9822C17.3911 49.4253 18.217 49.842 19.0466 50.2321C19.111 50.2624 19.1717 50.2813 19.2361 50.2965C19.255 50.3003 19.2777 50.3041 19.2967 50.3079C19.3383 50.3154 19.38 50.3192 19.4179 50.323C19.4482 50.323 19.4823 50.323 19.5126 50.323C19.5278 50.323 19.5467 50.323 19.5619 50.3192C19.6035 50.3117 19.6414 50.3041 19.6831 50.2927C19.6907 50.2927 19.6983 50.2927 19.7058 50.2889C19.7513 50.2738 19.7968 50.2548 19.8384 50.2321C19.8498 50.2245 19.8612 50.217 19.8725 50.2094C19.9028 50.1904 19.9293 50.1753 19.9597 50.1526C19.9748 50.1412 19.9862 50.1298 20.0013 50.1185C20.0241 50.0995 20.0468 50.0768 20.0695 50.0579C20.0809 50.0465 20.096 50.0314 20.1074 50.0162C20.1264 49.9935 20.1453 49.9708 20.1642 49.9443C20.1756 49.9291 20.187 49.9139 20.1945 49.8988C20.2135 49.8723 20.2286 49.842 20.24 49.8155C20.2476 49.8003 20.2552 49.789 20.2627 49.7738C20.2817 49.7359 20.293 49.6943 20.3082 49.6526C20.3082 49.6488 20.3082 49.645 20.312 49.6412C20.3234 49.5958 20.3309 49.5465 20.3385 49.5011C20.3385 49.4859 20.3385 49.4708 20.3385 49.4594C20.3385 49.4253 20.3385 49.3912 20.3385 49.3572C20.3385 49.3382 20.3385 49.3231 20.3309 49.3041C20.3309 49.2738 20.3234 49.2435 20.3158 49.2132C20.312 49.1943 20.3044 49.1754 20.3006 49.1564C20.293 49.1261 20.2779 49.0958 20.2665 49.0693C20.2589 49.0504 20.2514 49.0352 20.24 49.0163C20.2249 48.986 20.2021 48.9557 20.1832 48.9254C20.1718 48.9102 20.1642 48.8951 20.1529 48.8799C20.1188 48.8345 20.0809 48.7928 20.0354 48.7549C19.4444 48.2209 18.861 47.6565 18.2851 47.0656C17.7093 46.4747 17.1448 45.8611 16.5955 45.2248C15.8643 44.3764 15.1596 43.4901 14.5004 42.5772C14.3338 42.35 14.1746 42.1189 14.0155 41.8879C13.6973 41.4258 13.3904 40.9561 13.0987 40.4789C12.951 40.2402 12.8108 40.0016 12.6706 39.763C11.8333 38.3237 11.1287 36.8465 10.6021 35.3617C10.3369 34.6193 10.1209 33.8769 9.95426 33.1346C9.81408 32.5172 9.71179 31.8998 9.6436 31.2862C9.5792 30.6726 9.55268 30.0665 9.56783 29.4643C9.5792 28.9833 9.62087 28.506 9.68906 28.0326C9.75725 27.5591 9.85576 27.0932 9.98456 26.6349C9.98456 26.6273 9.98835 26.6235 9.99214 26.616C10.0679 26.3433 10.1475 26.0819 10.2308 25.8281C10.2611 25.7372 10.2952 25.6539 10.3255 25.563C10.3824 25.4001 10.4392 25.2335 10.5036 25.0782C10.5453 24.9797 10.5869 24.8888 10.6286 24.7903C10.6854 24.654 10.7423 24.5176 10.8067 24.3888C10.8521 24.2903 10.9052 24.2032 10.9544 24.1085C11.015 23.9911 11.0756 23.8699 11.1401 23.7601C11.1931 23.6692 11.2499 23.5858 11.3067 23.4949C11.3712 23.3927 11.4356 23.2866 11.5 23.1881C11.5606 23.101 11.6212 23.0253 11.6818 22.9419C11.75 22.851 11.8182 22.7563 11.8864 22.6692C11.9508 22.5897 12.019 22.5215 12.0872 22.4457C12.1592 22.3662 12.2311 22.2829 12.3069 22.2071C12.3789 22.1352 12.4509 22.0746 12.5229 22.0064C12.5986 21.9382 12.6744 21.8624 12.754 21.7981C12.8297 21.7375 12.9093 21.6806 12.9888 21.6238C13.0722 21.5632 13.1517 21.4988 13.2351 21.442C13.3146 21.389 13.4018 21.3435 13.4851 21.2905C13.5723 21.2375 13.6556 21.1845 13.7465 21.139C13.8337 21.0935 13.9208 21.0557 14.0117 21.014C14.1027 20.9723 14.1936 20.9269 14.2883 20.889C14.3792 20.8511 14.4739 20.8208 14.5686 20.7867C14.6671 20.7527 14.7618 20.7148 14.8604 20.6845C14.9551 20.6542 15.0574 20.6314 15.1559 20.6049C15.2581 20.5784 15.3604 20.5481 15.4665 20.5292C15.5688 20.5065 15.6711 20.4913 15.7734 20.4762C15.8832 20.4572 15.9893 20.4383 16.0992 20.4231C16.2053 20.408 16.3151 20.4004 16.4212 20.389C16.5349 20.3777 16.6485 20.3663 16.766 20.3587C16.8758 20.3512 16.9895 20.3512 17.1031 20.3474C17.1978 20.3474 17.2926 20.3398 17.3911 20.3398C17.4403 20.3398 17.4896 20.3398 17.5388 20.3398C18.2548 20.3398 19.0315 20.5557 19.8195 20.9155C20.2135 21.0935 20.6113 21.3094 21.0053 21.5519C21.5963 21.9155 22.1835 22.3397 22.7442 22.798C23.4943 23.4116 24.199 24.082 24.8165 24.7449C24.9339 24.8699 25.0438 24.9948 25.1537 25.1161C25.4833 25.4872 25.7788 25.8509 26.0364 26.1993C26.3736 26.6501 26.7107 27.1008 27.0479 27.544C27.3889 27.9909 27.7299 28.4341 28.0822 28.8734C28.552 29.4605 29.0179 30.0325 29.4839 30.5968C29.7946 30.9718 30.109 31.3468 30.4273 31.7142C30.9008 32.2672 31.382 32.8126 31.8707 33.3542C32.3594 33.8959 32.8595 34.4337 33.3747 34.9678C33.9771 35.5928 34.5984 36.2139 35.2462 36.8389C35.894 37.4639 36.5722 38.0926 37.2882 38.7252C38.1633 39.5016 39.0877 40.2895 40.0841 41.1C40.5804 41.5053 41.0956 41.9144 41.626 42.3272C42.1564 42.7401 42.7095 43.1643 43.2816 43.5923C43.9673 44.1074 44.6796 44.6301 45.4259 45.1642C45.6759 45.3422 45.926 45.524 46.1836 45.7021C46.7822 46.1263 47.3997 46.5543 48.0362 46.9937C48.468 47.308 48.9075 47.6073 49.3508 47.9027C49.4682 47.9822 49.5819 48.058 49.6993 48.1337C50.0933 48.3913 50.4873 48.6451 50.8851 48.8875C50.9419 48.9216 50.995 48.9595 51.0518 48.9898C51.4988 49.2625 51.9535 49.5238 52.4081 49.7776C52.5217 49.842 52.6392 49.9064 52.7528 49.967C53.1393 50.1791 53.5257 50.3836 53.9197 50.5844C54.0068 50.6298 54.094 50.6753 54.1773 50.7169C54.6395 50.9518 55.1055 51.1752 55.5715 51.3911C55.6775 51.4404 55.7874 51.4896 55.8935 51.5351C56.2837 51.7131 56.6777 51.8835 57.0717 52.0464C57.1778 52.0919 57.2839 52.1373 57.3899 52.179C57.8635 52.3721 58.3408 52.5577 58.8182 52.7358C58.9091 52.7699 59 52.8002 59.091 52.8342C59.4963 52.982 59.9017 53.1221 60.3109 53.2585C60.4283 53.2963 60.5458 53.338 60.667 53.3759C61.1519 53.5312 61.633 53.6789 62.1218 53.819C62.1824 53.838 62.243 53.8531 62.3036 53.8683C62.7355 53.9895 63.1712 54.1031 63.6069 54.213C63.7319 54.2433 63.8569 54.2736 63.9819 54.3039C64.4744 54.4213 64.9631 54.5311 65.4556 54.6334C65.4556 54.6334 65.4632 54.6334 65.467 54.6334C65.9557 54.7319 66.4406 54.819 66.9294 54.8985C67.0582 54.9213 67.1832 54.9402 67.312 54.9591C67.7515 55.0273 68.1909 55.0917 68.6342 55.1447C68.6872 55.1523 68.744 55.1599 68.7971 55.1674C69.282 55.228 69.7707 55.2735 70.2556 55.3152C70.3807 55.3265 70.5019 55.3341 70.6269 55.3455C71.0361 55.3758 71.4452 55.4023 71.8544 55.4212C71.9453 55.425 72.0362 55.4326 72.1272 55.4364C72.6083 55.4553 73.0857 55.4629 73.563 55.4667C73.6918 55.4667 73.8244 55.4667 73.9532 55.4667C74.2563 55.4667 74.5594 55.4591 74.8625 55.4515C75.0064 55.4477 75.1504 55.444 75.2943 55.4364C75.6126 55.4212 75.9308 55.4061 76.249 55.3833C76.3589 55.3758 76.4726 55.372 76.5824 55.3606C77.003 55.3303 77.4273 55.2887 77.844 55.2432C77.9311 55.2318 78.0183 55.2205 78.1054 55.2091C78.4388 55.1712 78.7684 55.1258 79.098 55.0803C79.2382 55.0614 79.3745 55.0387 79.5147 55.0159C79.8026 54.9705 80.0868 54.9213 80.3747 54.8682C80.5111 54.8417 80.6475 54.819 80.7839 54.7925C81.1172 54.7281 81.4469 54.6561 81.7765 54.5804C81.8522 54.5614 81.9318 54.5463 82.0075 54.5311C82.4091 54.4364 82.8031 54.3342 83.1971 54.2281C83.3108 54.1978 83.4244 54.1637 83.5381 54.1296C83.8222 54.0501 84.1064 53.963 84.3867 53.8759C84.5231 53.8342 84.6595 53.7887 84.7959 53.7433C85.0649 53.6524 85.3338 53.5615 85.599 53.4668C85.7203 53.4213 85.8453 53.3797 85.9665 53.3342C86.3454 53.1941 86.7204 53.0464 87.0879 52.8911C87.1106 52.8797 87.1372 52.8683 87.1599 52.857C87.5084 52.7093 87.8494 52.554 88.1904 52.3949C88.3116 52.3381 88.429 52.2775 88.5503 52.2206C88.8003 52.0994 89.0466 51.9744 89.289 51.8495C89.414 51.7813 89.5429 51.7169 89.6679 51.6487C89.9217 51.5123 90.1717 51.3684 90.4218 51.2245C90.5241 51.1639 90.6264 51.1109 90.7249 51.0502C91.0658 50.8457 91.3992 50.6374 91.7288 50.4177C91.8046 50.3647 91.8803 50.3117 91.9599 50.2586C92.2137 50.0844 92.4676 49.9102 92.7176 49.7283C92.8313 49.645 92.9449 49.5617 93.0548 49.4784C93.2707 49.3155 93.4867 49.1488 93.695 48.9822C93.8049 48.8951 93.9148 48.8079 94.0208 48.717C94.2633 48.5163 94.502 48.3118 94.7407 48.0996C94.8051 48.0428 94.8733 47.986 94.9377 47.9292C95.2332 47.6641 95.5211 47.3876 95.8014 47.1073C95.8848 47.024 95.9681 46.9368 96.0515 46.8497C96.2523 46.6452 96.4531 46.4369 96.6463 46.221C96.7448 46.1149 96.8395 46.0051 96.938 45.899C97.1236 45.6907 97.3055 45.4748 97.4835 45.2589C97.5707 45.1566 97.654 45.0544 97.7411 44.9483C97.9912 44.6377 98.2374 44.3196 98.4761 43.99C98.4913 43.9673 98.5064 43.9446 98.5254 43.9218C98.7565 43.6037 98.9762 43.2779 99.1959 42.9484C99.2717 42.8348 99.3437 42.7174 99.4156 42.6037C99.571 42.3575 99.7225 42.1113 99.8741 41.8576C99.9498 41.7288 100.026 41.6 100.098 41.4712C100.249 41.2023 100.397 40.9296 100.541 40.6531C100.598 40.547 100.654 40.441 100.711 40.3311C100.905 39.9486 101.09 39.5584 101.268 39.1645C101.306 39.0812 101.34 38.9941 101.378 38.9108C101.518 38.5888 101.655 38.2669 101.783 37.9335C101.836 37.7934 101.89 37.6533 101.943 37.5131C102.052 37.2215 102.159 36.926 102.257 36.6306C102.306 36.4866 102.356 36.3427 102.401 36.1988C102.515 35.8465 102.621 35.4905 102.727 35.1269C102.753 35.0398 102.78 34.9526 102.803 34.8655C102.928 34.4186 103.041 33.9603 103.144 33.4944C103.174 33.3694 103.197 33.2368 103.227 33.108C103.303 32.7634 103.371 32.4111 103.439 32.0589C103.469 31.896 103.496 31.7331 103.526 31.5665C103.583 31.2218 103.636 30.8733 103.685 30.5211C103.708 30.3658 103.731 30.2143 103.75 30.059C103.814 29.5552 103.867 29.0477 103.913 28.5325C104.057 26.8167 104.026 25.0138 103.795 23.173L103.738 23.1995Z" fill="white"/>
<path d="M62.365 30.2166C63.7177 31.2451 65.4664 32.5706 66.6696 33.4617C67.4543 34.0409 68.5454 33.9667 69.2404 33.2872C73.2872 29.3366 79.9384 23.3662 83.9217 22.1744C84.5158 21.9961 84.6167 20.9639 84.0487 20.704C81.7059 19.6273 78.582 18.8513 76.4633 19.2968C74.5726 19.6941 67.9849 22.8316 62.365 27.0829C61.3262 27.87 61.3262 29.4257 62.365 30.2129V30.2166Z" fill="white"/>
<path d="M34.2506 38.6C33.653 38.0241 32.865 37.7038 32.0434 37.7266C27.6102 37.8563 22.5047 33.3714 20.051 31.1366C19.6401 30.759 19.0089 31.2052 19.2106 31.7315C20.0659 33.9778 22.2059 37.8601 27.4122 41.3382C29.851 42.9628 32.9995 43.7179 36.4205 44.1679C37.4214 44.3014 38.4112 44.3968 39.3785 44.454C39.9238 44.4845 40.1889 43.7751 39.7557 43.4281C37.892 41.9407 36.0508 40.3276 34.2543 38.6038V38.5962L34.2506 38.6Z" fill="white"/>
<path d="M91.0273 25.4669C91.3073 26.2002 92.401 26.0717 92.4956 25.2892C93.0822 20.5607 90.6148 15.0573 87.5835 11.5761C84.5522 8.09485 80.0866 5.69467 75.3448 5.70979C70.41 5.72869 66.0731 8.26494 62.6671 11.6706C60.9339 13.4055 59.4163 15.3445 58.035 17.3667C56.9413 18.9694 54.3566 21.6455 56.0028 23.5354L57.4863 25.2514C58.3151 26.2115 59.7418 26.3816 60.7749 25.6445C64.529 22.9684 73.1536 17.1551 77.184 17.14C82.8379 16.6864 89.1237 19.9975 91.0235 25.4631L91.0273 25.4669Z" fill="white"/>
<path d="M44.5623 46.7581C44.3246 46.5997 44.0454 46.5092 43.7587 46.5054C42.231 46.4828 38.9151 46.4715 36.697 46.2188C24.8255 45.1816 13.799 34.4626 17.1488 23.2609C17.2922 22.7857 16.8546 22.3331 16.3755 22.45C12.226 23.491 10.9735 29.0541 12.3844 33.8177C12.3995 33.863 12.4146 33.9082 12.4297 33.9535C17.8316 48.5836 35.2258 59.2648 48.1761 51.797C48.3082 51.7216 48.4251 51.6235 48.5307 51.5141C48.5345 51.5104 48.5383 51.5028 48.5458 51.4991C49.1645 50.8315 49.0438 49.7641 48.2855 49.2587L44.5623 46.7619V46.7581Z" fill="white"/>
</svg>
